<?xml version="1.0" standalone="no"?>
<!DOCTYPE svg PUBLIC "-//W3C//DTD SVG 20010904//EN"
 "http://www.w3.org/TR/2001/REC-SVG-20010904/DTD/svg10.dtd">
<svg version="1.0" xmlns="http://www.w3.org/2000/svg"
 width="512.000000pt" height="512.000000pt" viewBox="0 0 512.000000 512.000000"
 preserveAspectRatio="xMidYMid meet">
<metadata>
Created by potrace 1.14, written by Peter Selinger 2001-2017
</metadata>
<g transform="translate(0.000000,512.000000) scale(0.100000,-0.100000)"
fill="#000000" stroke="none">
<path d="M4245 5104 c-252 -44 -481 -160 -656 -334 -80 -79 -153 -166 -162
-193 -2 -8 -24 -3 -68 15 -151 62 -383 128 -504 143 -27 4 -57 8 -65 10 -101
27 -519 26 -675 0 -297 -51 -521 -124 -755 -246 -371 -194 -667 -465 -904
-825 -158 -243 -303 -606 -341 -859 -3 -22 -10 -67 -15 -100 -30 -195 -30
-459 1 -668 77 -526 302 -971 679 -1347 291 -291 629 -493 1013 -604 72 -21
120 -32 262 -62 11 -2 38 -6 60 -9 22 -3 56 -8 75 -10 67 -10 415 -13 493 -5
534 57 1017 271 1391 620 189 176 371 408 476 605 17 33 35 67 40 75 80 140
189 472 220 670 6 41 13 86 16 100 23 138 22 507 -2 622 -2 13 -6 39 -9 58
-17 125 -94 406 -139 505 -8 17 -26 59 -42 95 -74 171 -187 355 -317 517 l-65
81 30 13 c33 13 159 93 198 125 199 163 308 325 435 654 31 80 60 155 66 168
5 12 13 32 19 45 29 70 40 101 35 105 -8 8 -34 11 -255 28 -41 3 -86 7 -100
10 -66 12 -360 11 -435 -2z"/>
</g>
</svg>
